<?xml version="1.0" encoding="UTF-8"?>
<svg id="Layer_1" data-name="Layer 1" xmlns="http://www.w3.org/2000/svg" viewBox="0 0 878.46 901.54">
  <defs>
    <style>
      .cls-1 {
        fill: #efa63e;
      }
    </style>
  </defs>
  <g>
    <path d="M265.92,690.68l-13.19,13.05c-8.35-8.83-18.08-13.25-29.2-13.25-9.69,0-17.81,3.21-24.35,9.64-6.54,6.42-9.81,14.23-9.81,23.42s3.39,17.56,10.18,24.16c6.79,6.6,15.16,9.9,25.12,9.9,6.48,0,11.94-1.36,16.38-4.08,4.44-2.72,8.03-6.98,10.75-12.78h-28.51v-17.6h49.52l.13,4.15c0,8.61-2.23,16.78-6.69,24.49-4.46,7.72-10.24,13.61-17.33,17.67-7.09,4.06-15.41,6.09-24.96,6.09-10.22,0-19.33-2.22-27.34-6.66-8.01-4.44-14.34-10.76-19-18.97-4.66-8.21-6.99-17.06-6.99-26.57,0-13.03,4.3-24.36,12.92-33.99,10.22-11.46,23.51-17.2,39.88-17.2,8.57,0,16.57,1.58,24.02,4.75,6.29,2.68,12.45,7.27,18.47,13.79Z"/>
    <path d="M342.1,674.62h19l37.86,98.44h-19.47l-7.7-20.28h-40.17l-8.01,20.28h-19.47l37.96-98.44ZM351.72,700.71l-13.21,33.79h26.33l-13.13-33.79Z"/>
    <path d="M436.65,674.62h19.85c10.87,0,18.62.97,23.23,2.91,4.61,1.94,8.32,5.17,11.13,9.67,2.81,4.51,4.21,9.84,4.21,15.99,0,6.47-1.55,11.88-4.65,16.23-3.1,4.35-7.77,7.64-14.02,9.87l23.32,43.76h-20.48l-22.13-41.69h-1.71v41.69h-18.74v-98.44ZM455.39,713.09h5.87c5.96,0,10.06-.78,12.31-2.35s3.37-4.16,3.37-7.79c0-2.15-.56-4.02-1.67-5.61-1.11-1.59-2.6-2.73-4.47-3.42-1.87-.69-5.29-1.04-10.27-1.04h-5.14v20.21Z"/>
    <path d="M566.84,674.62h19l37.86,98.44h-19.47l-7.7-20.28h-40.17l-8.01,20.28h-19.47l37.96-98.44ZM576.46,700.71l-13.21,33.79h26.34l-13.13-33.79Z"/>
    <path d="M684.61,674.62h18.8v65.31c0,10.39-.83,17.69-2.48,21.88-1.65,4.19-4.37,7.53-8.16,10-3.79,2.48-8.34,3.71-13.65,3.71-10.84,0-20.08-4.75-27.7-14.25l13.52-12.65c2.99,3.39,5.53,5.67,7.63,6.83,2.1,1.16,4.13,1.74,6.09,1.74s3.5-.85,4.48-2.54c.98-1.7,1.47-5.42,1.47-11.18v-68.86Z"/>
  </g>
  <path d="M608.85,346.5c.17,3.07.27,6.16.27,9.27,0,89.77-72.78,162.55-162.55,162.55s-162.55-72.78-162.55-162.55,72.78-162.55,162.55-162.55c9.37,0,18.56.8,27.5,2.33l-97.4-109.09c-119.8,31-208.27,139.82-208.27,269.31,0,153.63,124.54,278.17,278.17,278.17,118.44,0,219.57-74.03,259.7-178.33l-97.41-109.1Z"/>
  <polygon class="cls-1" points="426.54 455.92 427.37 346.86 611.36 346.86 706.92 454.96 426.54 455.92"/>
</svg>